<svg width="64" height="64" viewBox="0 0 64 64" fill="none" xmlns="http://www.w3.org/2000/svg">
<g clip-path="url(#clip0_4257_44)">
<path d="M0 0H64V64H0V0Z" fill="#44475A"/>
<rect x="14" y="21" width="37" height="23" fill="#8C8E97"/>
<path d="M32 35L15.5455 21.5H48.4545L32 35Z" fill="#F8F8F2"/>
<path d="M11.875 20.1875V43.8125C11.875 44.6 12.45 45.125 13.3125 45.125H50.6875C51.55 45.125 52.125 44.6 52.125 43.8125V20.1875C52.125 19.4 51.55 18.875 50.6875 18.875H13.3125C12.45 18.875 11.875 19.4 11.875 20.1875ZM32 37.25L36.6 33.8375L47.525 42.2375H16.7625L27.6875 33.8375L32 37.25ZM32 33.8375L16.7625 21.7625H47.525L32 33.8375ZM14.75 23.8625L25.3875 32L14.75 40.1375V23.8625ZM49.25 40.1375L38.6125 32L49.25 23.8625V40.1375Z" fill="#6272A4"/>
</g>
<defs>
<clipPath id="clip0_4257_44">
<rect width="64" height="64" fill="white"/>
</clipPath>
</defs>
</svg>
